<svg width="17" height="21" viewBox="0 0 17 21" fill="none" xmlns="http://www.w3.org/2000/svg">
<path d="M9.75 15.375C9.75 15.6717 9.66203 15.9617 9.4972 16.2084C9.33238 16.455 9.09811 16.6473 8.82403 16.7608C8.54994 16.8744 8.24834 16.9041 7.95736 16.8462C7.66639 16.7883 7.39912 16.6454 7.18934 16.4357C6.97956 16.2259 6.8367 15.9586 6.77882 15.6676C6.72094 15.3767 6.75065 15.0751 6.86418 14.801C6.97771 14.5269 7.16997 14.2926 7.41665 14.1278C7.66332 13.963 7.95333 13.875 8.25 13.875C8.64782 13.875 9.02936 14.033 9.31066 14.3143C9.59196 14.5956 9.75 14.9772 9.75 15.375ZM16.5 8.25V12.75C16.5 14.938 15.6308 17.0365 14.0836 18.5836C12.5365 20.1308 10.438 21 8.25 21C6.06196 21 3.96354 20.1308 2.41637 18.5836C0.869194 17.0365 0 14.938 0 12.75V4.5C0 4.10218 0.158035 3.72064 0.43934 3.43934C0.720644 3.15804 1.10218 3 1.5 3C1.89782 3 2.27936 3.15804 2.56066 3.43934C2.84196 3.72064 3 4.10218 3 4.5V9.75C3 9.94891 3.07902 10.1397 3.21967 10.2803C3.36032 10.421 3.55109 10.5 3.75 10.5C3.94891 10.5 4.13968 10.421 4.28033 10.2803C4.42098 10.1397 4.5 9.94891 4.5 9.75V1.5C4.5 1.10218 4.65804 0.720644 4.93934 0.43934C5.22064 0.158035 5.60218 0 6 0C6.39782 0 6.77936 0.158035 7.06066 0.43934C7.34196 0.720644 7.5 1.10218 7.5 1.5V9C7.5 9.19891 7.57902 9.38968 7.71967 9.53033C7.86032 9.67098 8.05109 9.75 8.25 9.75C8.44891 9.75 8.63968 9.67098 8.78033 9.53033C8.92098 9.38968 9 9.19891 9 9V3C9 2.60218 9.15804 2.22064 9.43934 1.93934C9.72064 1.65804 10.1022 1.5 10.5 1.5C10.8978 1.5 11.2794 1.65804 11.5607 1.93934C11.842 2.22064 12 2.60218 12 3V10.5C12 10.6989 12.079 10.8897 12.2197 11.0303C12.3603 11.171 12.5511 11.25 12.75 11.25C12.9489 11.25 13.1397 11.171 13.2803 11.0303C13.421 10.8897 13.5 10.6989 13.5 10.5V8.25C13.5 7.85218 13.658 7.47064 13.9393 7.18934C14.2206 6.90804 14.6022 6.75 15 6.75C15.3978 6.75 15.7794 6.90804 16.0607 7.18934C16.342 7.47064 16.5 7.85218 16.5 8.25ZM13.0856 15.2072C13.02 15.0759 11.445 12 8.25 12C5.055 12 3.48 15.0759 3.41437 15.2072C3.3883 15.2593 3.37473 15.3167 3.37473 15.375C3.37473 15.4333 3.3883 15.4907 3.41437 15.5428C3.48 15.6741 5.055 18.75 8.25 18.75C11.445 18.75 13.02 15.6741 13.0856 15.5428C13.1117 15.4907 13.1253 15.4333 13.1253 15.375C13.1253 15.3167 13.1117 15.2593 13.0856 15.2072Z" fill="#FF4000"/>
</svg>
